<svg xmlns="http://www.w3.org/2000/svg" width="25px" height="24px" viewBox="0 0 83.66 96.68">
    <g>
        <path d="M47.21 39.93H36.45a1.5 1.5 0 0 0 0 3h10.76a1.5 1.5 0 0 0 0-3Z"></path>
        <path d="M82.16 0H1.5A1.5 1.5 0 0 0 0 1.5v93.66a1.5 1.5 0 0 0 3 0V89h77.66v6.14a1.5 1.5 0 1 0 3 0V1.5a1.5 1.5 0 0 0-1.5-1.5ZM3 53.77V29.89h77.66v23.88ZM80.66 3v23.89H3V3ZM3 84.42V56.77h37.33V86H3ZM43.33 86V56.77h37.33V86Z"></path>
        <path d="M36.45 16h10.76a1.5 1.5 0 1 0 0-3H36.45a1.5 1.5 0 0 0 0 3Z"></path>
    </g>
</svg>